<svg xmlns="http://www.w3.org/2000/svg" viewBox="0 0 142.09 131.21"><defs><style>.cls-1{fill:#435e71;}</style></defs><title>password-management</title><g id="Layer_2" data-name="Layer 2"><g id="Layer_1-2" data-name="Layer 1"><path id="iconmonstr-lock-3" class="cls-1" d="M63.15,42.26V25.42a25.26,25.26,0,0,0-50.52-.32V42.26H0V101.2H75.79V42.26Zm-21,32.52v9.58H33.68V74.78a8.44,8.44,0,1,1,8.42,0Zm-21-32.52V25.42a16.84,16.84,0,1,1,33.68,0V42.26Z"/><path id="iconmonstr-password-3" class="cls-1" d="M50,85.16v46.05h92.09V85.16Zm84.42,38.37H57.67V92.83h76.75ZM76.86,108.18A3.84,3.84,0,1,1,73,104.34h0A3.85,3.85,0,0,1,76.86,108.18Zm15.35,0a3.84,3.84,0,1,1-3.84-3.84h0A3.85,3.85,0,0,1,92.21,108.18Zm15.35,0a3.84,3.84,0,1,1-3.84-3.84h0a3.84,3.84,0,0,1,3.84,3.84Zm19.18,7.68H115.23V112h11.51Z"/></g></g></svg>