<svg xmlns="http://www.w3.org/2000/svg" viewBox="0 0 148.68 133.89"><defs><style>.cls-1,.cls-2{fill:#435e71;}.cls-2{fill-rule:evenodd;}</style></defs><title>secure-web</title><g id="Layer_2" data-name="Layer 2"><g id="Layer_1-2" data-name="Layer 1"><path id="iconmonstr-lock-3" class="cls-1" d="M63.15,42.26V25.42a25.26,25.26,0,0,0-50.52-.32V42.26H0V101.2H75.79V42.26Zm-21,32.52v9.58H33.68V74.78a8.44,8.44,0,1,1,8.42,0Zm-21-32.52V25.42a16.84,16.84,0,1,1,33.68,0V42.26Z"/><path id="iconmonstr-globe-7" class="cls-2" d="M117.07,108.61a73,73,0,0,1-11.73,25.28,73.16,73.16,0,0,1-11.72-25.28Zm27.68,0a43.45,43.45,0,0,1-30.29,24.32,77,77,0,0,0,10-24.32Zm-78.81,0H86.2a77,77,0,0,0,10,24.31,43.41,43.41,0,0,1-30.29-24.31Zm52.55-7.23H92.2a74.93,74.93,0,0,1,0-21.67h26.3A75.29,75.29,0,0,1,118.49,101.38Zm-33.59,0H63.37a43.45,43.45,0,0,1,0-21.67H84.9a82.74,82.74,0,0,0,0,21.67Zm62.42,0H125.78a82.74,82.74,0,0,0,0-21.67h21.54A43.69,43.69,0,0,1,147.32,101.38Zm-30.25-28.9H93.62a72.85,72.85,0,0,1,11.72-25.27,72.47,72.47,0,0,1,11.73,25.28Zm-30.88,0H65.93a43.5,43.5,0,0,1,30.3-24.31,76.94,76.94,0,0,0-10,24.32Zm58.56,0H124.49a77,77,0,0,0-10-24.31,43.45,43.45,0,0,1,30.29,24.32Z"/></g></g></svg>