<svg xmlns="http://www.w3.org/2000/svg" viewBox="0 0 172.17 127.91"><defs><style>.cls-1,.cls-2{fill:#435e71;}.cls-1{fill-rule:evenodd;}</style></defs><title>web-sharing</title><g id="Layer_2" data-name="Layer 2"><g id="Layer_1-2" data-name="Layer 1"><path id="iconmonstr-folder-28" class="cls-1" d="M107.09,89.24H0V0H31.23C38.8,8.66,41.81,13.39,49.08,13.39h58ZM27.14,8.92H8.92v71.4H98.16v-58H49.08C38.65,22.31,33.3,16.12,27.14,8.92ZM71.39,71.39H35.7V49.08h4.46V44.62a13.39,13.39,0,1,1,26.77,0v4.46H71.4ZM49.08,44.62v4.46H58V44.62a4.47,4.47,0,0,0-8.93,0Z"/><path id="iconmonstr-share-1" class="cls-2" d="M101.91,65A18.43,18.43,0,1,1,83.49,83.46h0A18.43,18.43,0,0,1,101.91,65Zm41,44.47a14.24,14.24,0,0,0-.45,3.44,14.86,14.86,0,1,0,3.92-9.94L126.15,92.21a25.9,25.9,0,0,1-3.47,6.5Zm29-55.53a14.74,14.74,0,0,0-29.48,0,14.32,14.32,0,0,0,.45,3.45L122.68,68.21a25.28,25.28,0,0,1,3.48,6.5l20.22-10.79a14.7,14.7,0,0,0,25.56-10Z"/></g></g></svg>